<svg xmlns="http://www.w3.org/2000/svg" xmlns:xlink="http://www.w3.org/1999/xlink" version="1.1" x="0px" y="0px" viewBox="0 0 66 82.5" style="enable-background:new 0 0 66 66;" xml:space="preserve"><g><g><path d="M24.4,19.4v-8c0-0.6-0.4-1-1-1c-0.6,0-1,0.4-1,1v8c-1.8,0.4-3.1,2.1-3.1,4c0,1.2,0.5,2.2,1.2,3l-3.6,6.1    c-0.3,0.5-0.1,1.1,0.4,1.4c0.5,0.3,1.1,0.1,1.4-0.4l3.6-6.1c0.4,0.1,0.8,0.2,1.2,0.2c2.3,0,4.1-1.9,4.1-4.1    C27.5,21.4,26.1,19.8,24.4,19.4z M23.4,25.5c-1.2,0-2.1-1-2.1-2.1c0-1.2,1-2.1,2.1-2.1c1.2,0,2.1,1,2.1,2.1    C25.5,24.5,24.5,25.5,23.4,25.5z"/></g><g><path d="M23.4,7.8c0.6,0,1-0.4,1-1v-2c0-0.6-0.4-1-1-1c-0.6,0-1,0.4-1,1v2C22.4,7.3,22.8,7.8,23.4,7.8z"/></g><g><path d="M23.4,38.9c-0.6,0-1,0.4-1,1v2c0,0.6,0.4,1,1,1c0.6,0,1-0.4,1-1v-2C24.4,39.4,23.9,38.9,23.4,38.9z"/></g><g><path d="M7.8,23.4c0-0.6-0.4-1-1-1h-2c-0.6,0-1,0.4-1,1c0,0.6,0.4,1,1,1h2C7.3,24.4,7.8,23.9,7.8,23.4z"/></g><g><path d="M38.9,23.4c0,0.6,0.4,1,1,1h2c0.6,0,1-0.4,1-1c0-0.6-0.4-1-1-1h-2C39.4,22.4,38.9,22.8,38.9,23.4z"/></g><g><path d="M6.7,14.9l1.8,1c0.5,0.3,1.1,0.1,1.4-0.4c0.3-0.5,0.1-1.1-0.4-1.4l-1.8-1c-0.5-0.3-1.1-0.1-1.4,0.4    C6.1,14.1,6.2,14.7,6.7,14.9z"/></g><g><path d="M15.6,36.8c-0.5-0.3-1.1-0.1-1.4,0.4l-1,1.8c-0.3,0.5-0.1,1.1,0.4,1.4c0.5,0.3,1.1,0.1,1.4-0.4l1-1.8    C16.2,37.7,16.1,37.1,15.6,36.8z"/></g><g><path d="M31.1,9.9c0.5,0.3,1.1,0.1,1.4-0.4l1-1.8c0.3-0.5,0.1-1.1-0.4-1.4c-0.5-0.3-1.1-0.1-1.4,0.4l-1,1.8    C30.5,9,30.6,9.6,31.1,9.9z"/></g><g><path d="M15.4,10c0.5-0.3,0.6-0.9,0.3-1.4l-1-1.8c-0.3-0.5-0.9-0.6-1.4-0.3c-0.5,0.3-0.6,0.9-0.3,1.4l1,1.8    C14.3,10.1,14.9,10.3,15.4,10z"/></g><g><path d="M8.6,31l-1.8,1c-0.5,0.3-0.6,0.9-0.3,1.4c0.3,0.5,0.9,0.6,1.4,0.3l1.8-1c0.5-0.3,0.6-0.9,0.3-1.4    C9.7,30.8,9.1,30.7,8.6,31z"/></g><g><path d="M38.1,15.8l1.8-1c0.5-0.3,0.6-0.9,0.3-1.4c-0.3-0.5-0.9-0.6-1.4-0.3l-1.8,1c-0.5,0.3-0.6,0.9-0.3,1.4    C37,15.9,37.6,16,38.1,15.8z"/></g><g><path d="M40.9,2h17.3v24l-4.1-4.1c-0.4-0.4-1-0.4-1.4,0c-0.4,0.4-0.4,1,0,1.4l5.8,5.8c0.2,0.2,0.4,0.3,0.7,0.3    c0.3,0,0.5-0.1,0.7-0.3l5.8-5.8c0.4-0.4,0.4-1,0-1.4c-0.4-0.4-1-0.4-1.4,0L60.2,26V1c0-0.6-0.4-1-1-1H40.9c-0.6,0-1,0.4-1,1    S40.4,2,40.9,2z"/></g><g><path d="M65.3,36.4C65.3,36.4,65.3,36.3,65.3,36.4c-0.2-0.1-18.6-10.2-18.8-10.2c0.1-1,0.2-1.9,0.2-2.8C46.7,10.5,36.2,0,23.3,0    C10.5,0,0,10.5,0,23.4c0,12.9,10.5,23.4,23.3,23.4c1,0,2.2-0.1,3.4-0.3v6.8c0,0.3,0.2,0.7,0.5,0.8l18.5,11.7    c0.2,0.1,0.3,0.2,0.5,0.2c0.2,0,0.4-0.1,0.5-0.1l18.7-9.9c0.3-0.2,0.5-0.5,0.5-0.9V37.3C65.9,36.9,65.7,36.6,65.3,36.4z     M62.8,37.3l-4.4,2.4l-16.6-9.1l4.4-2.3L62.8,37.3z M54.4,42.4L37.2,33l2.5-1.4l17.7,9.7v5L55,47.8v-4.5    C55,42.9,54.7,42.5,54.4,42.4z M46.3,46.3L29.8,37l5.3-2.8l16.8,9.1L46.3,46.3z M23.3,44.7C11.6,44.7,2,35.1,2,23.4    C2,11.6,11.6,2,23.3,2c11.8,0,21.4,9.6,21.4,21.4c0,1-0.1,2.4-0.3,3.6c0,0-17,9.1-17.2,9.1c-0.3,0.2-0.5,0.6-0.5,0.9v7.5    C25.5,44.6,24.3,44.7,23.3,44.7z M28.7,52.7V38.7L45.2,48v15.2L28.7,52.7z M47.2,63.3V48.1l5.7-3.1v4.5c0,0.4,0.2,0.7,0.5,0.9    c0.3,0.2,0.7,0.2,1,0l4.5-2.5c0.3-0.2,0.5-0.5,0.5-0.9v-5.6l4.4-2.4v15.5L47.2,63.3z"/></g><g><path d="M43,51.1l-10.9-6.3c-0.5-0.3-1.1-0.1-1.4,0.4c-0.3,0.5-0.1,1.1,0.4,1.4L42,52.8c0.5,0.3,1.1,0.1,1.4-0.4    C43.6,52,43.4,51.3,43,51.1z"/></g><g><path d="M42.9,55.2L32,48.8c-0.5-0.3-1.1-0.1-1.4,0.4c-0.3,0.5-0.1,1.1,0.4,1.4l10.9,6.3c0.5,0.3,1.1,0.1,1.4-0.4    C43.5,56,43.3,55.4,42.9,55.2z"/></g></g><text x="0" y="81" fill="#000000" font-size="5px" font-weight="bold" font-family="'Helvetica Neue', Helvetica, Arial-Unicode, Arial, Sans-serif">Created by Vectors Market</text><text x="0" y="86" fill="#000000" font-size="5px" font-weight="bold" font-family="'Helvetica Neue', Helvetica, Arial-Unicode, Arial, Sans-serif">from the Noun Project</text></svg>